<?xml version="1.0" encoding="utf-8"?>
<!-- Generator: Adobe Illustrator 18.1.0, SVG Export Plug-In . SVG Version: 6.00 Build 0)  -->
<svg version="1.1" id="Layer_1" xmlns="http://www.w3.org/2000/svg" xmlns:xlink="http://www.w3.org/1999/xlink" x="0px" y="0px"
	 viewBox="0 0 31 45" enable-background="new 0 0 31 45" xml:space="preserve">
<g id="f8Zmqo.tif">
	<g>
		<path fill="#F2074F" d="M28.9,13.6c0,0.9,0,1.7,0,2.6c-0.1,0.5-0.1,1-0.2,1.4c-0.6,2.5-1.6,4.8-3,7c-1.3,2.1-2.8,4.1-4.3,6.1
			c-1.8,2.4-3.5,4.7-5,7.3c-1.1,1.9-1.7,3.3-2.3,6c0,0-0.1,0.3-0.2,0.8c-0.1-0.6-0.1-0.4-0.1-0.6c-0.1-0.9-0.2-1.8-0.4-2.8
			c-0.3-1.6-0.6-3.2-1.1-4.8c-1.2-4-2.9-7.7-4.8-11.4c-1.1-2.2-2.3-4.3-3.2-6.6C3.7,16.9,3,15,3.2,13c0.1-1.3,0.4-2.7,0.8-4
			c0.9-2.5,2.4-4.6,4.5-6.1c1.7-1.2,3.6-1.9,5.6-2.2c2.1-0.3,4.2,0.1,6.1,0.9c1.3,0.6,2.5,1.4,3.6,2.3c1.7,1.5,3,3.4,3.9,5.5
			C28.3,10.7,28.6,12.1,28.9,13.6z"/>
	</g>
</g>
</svg>
